HIERARCHY
ROOT Hips
{
 OFFSET 0.000000 0.000000 0.000000
 CHANNELS 6 Xposition Yposition Zposition Yrotation Xrotation Zrotation
 JOINT Chest
 {
  OFFSET 0.000000 11.395451 -0.039534
  CHANNELS 3 Yrotation Xrotation Zrotation
  JOINT Chest2
  {
   OFFSET 0.000000 9.398669 0.071813
   CHANNELS 3 Yrotation Xrotation Zrotation
   JOINT Chest3
   {
    OFFSET 0.000000 8.489801 0.000000
    CHANNELS 3 Yrotation Xrotation Zrotation
    JOINT Chest4
    {
     OFFSET 0.000000 8.489801 0.000000
     CHANNELS 3 Yrotation Xrotation Zrotation
     JOINT Neck
     {
      OFFSET 0.000000 12.404889 0.000000
      CHANNELS 3 Yrotation Xrotation Zrotation
      JOINT Head
      {
       OFFSET 0.000000 8.903270 0.092239
       CHANNELS 3 Yrotation Xrotation Zrotation
       End Site
       {
        OFFSET 0.000000 17.592497 0.007158
       }
      }
     }
     JOINT RightCollar
     {
      OFFSET -3.196775 6.966722 0.000000
      CHANNELS 3 Yrotation Xrotation Zrotation
      JOINT RightShoulder
      {
       OFFSET -15.955896 0.000000 0.000000
       CHANNELS 3 Yrotation Xrotation Zrotation
       JOINT RightElbow
       {
        OFFSET -24.792472 0.000000 0.000000
        CHANNELS 3 Yrotation Xrotation Zrotation
        JOINT RightWrist
        {
         OFFSET -20.900115 0.000000 0.025002
         CHANNELS 3 Yrotation Xrotation Zrotation
         End Site
         {
          OFFSET -16.056692 0.000000 0.000000
         }
        }
       }
      }
     }
     JOINT LeftCollar
     {
      OFFSET 3.196775 6.966722 0.000000
      CHANNELS 3 Yrotation Xrotation Zrotation
      JOINT LeftShoulder
      {
       OFFSET 15.955896 0.000000 0.000000
       CHANNELS 3 Yrotation Xrotation Zrotation
       JOINT LeftElbow
       {
        OFFSET 24.792472 0.000000 0.000000
        CHANNELS 3 Yrotation Xrotation Zrotation
        JOINT LeftWrist
        {
         OFFSET 20.900115 0.000000 0.025002
         CHANNELS 3 Yrotation Xrotation Zrotation
         End Site
         {
          OFFSET 16.056692 0.000000 0.000000
         }
        }
       }
      }
     }
    }
   }
  }
 }
 JOINT RightHip
 {
  OFFSET -9.568995 0.193718 0.019767
  CHANNELS 3 Yrotation Xrotation Zrotation
  JOINT RightKnee
  {
   OFFSET 0.000000 -56.649296 0.015402
   CHANNELS 3 Yrotation Xrotation Zrotation
   JOINT RightAnkle
   {
    OFFSET 0.000000 -41.365147 0.021264
    CHANNELS 3 Yrotation Xrotation Zrotation
    JOINT RightToe
    {
     OFFSET 0.000000 -7.465940 17.672538
     CHANNELS 3 Yrotation Xrotation Zrotation
     End Site
     {
      OFFSET 0.000000 -1.736315 7.837145
     }
    }
   }
  }
 }
 JOINT LeftHip
 {
  OFFSET 9.568995 0.193718 0.019767
  CHANNELS 3 Yrotation Xrotation Zrotation
  JOINT LeftKnee
  {
   OFFSET 0.000000 -56.649296 0.015402
   CHANNELS 3 Yrotation Xrotation Zrotation
   JOINT LeftAnkle
   {
    OFFSET 0.000000 -41.365147 0.021264
    CHANNELS 3 Yrotation Xrotation Zrotation
    JOINT LeftToe
    {
     OFFSET 0.000000 -7.465940 17.672538
     CHANNELS 3 Yrotation Xrotation Zrotation
     End Site
     {
      OFFSET 0.000000 -1.736315 7.837145
     }
    }
   }
  }
 }
}
MOTION
Frames: 17
Frame Time: 0.016667
-132.057589 106.675990 288.354045 65.778911 -8.225329 -0.222320 -0.788302 2.470841 -1.293742 -0.343382 1.100344 -0.570660 -0.343382 1.100344 -0.570660 -0.256501 0.825580 -0.427364 -1.112541 16.771664 1.262486 -2.506694 -4.999062 2.731821 2.049677 2.378261 10.673950 0.210872 -5.808160 74.518719 3.099962 18.089228 1.732710 -0.218470 1.798336 3.235214 -0.456732 3.485348 -7.103929 -1.959209 -6.694639 -77.362556 1.196979 2.793685 4.346944 1.696096 3.043260 -3.283757 2.447898 14.619509 -0.663337 -0.348003 -0.758494 -0.123822 2.660312 -4.830766 1.674954 0.004168 -0.873522 -0.546755 -2.376663 14.946245 -0.406892 0.114868 -0.920922 0.181519 5.294241 -5.404654 0.332472 0.000000 0.000000 -0.000000
-132.097591 106.670287 288.345939 65.669721 -8.111493 -0.205225 -0.800551 2.423385 -1.273397 -0.349068 1.079252 -0.561642 -0.349069 1.079252 -0.561641 -0.260802 0.809761 -0.420602 -1.126591 16.788118 1.221853 -2.517948 -4.969386 2.660981 2.047464 2.378939 10.607374 0.197953 -5.804772 74.548590 2.914274 18.033492 1.606303 -0.214700 1.813419 3.249478 -0.487737 3.468326 -7.061776 -2.082513 -6.779452 -77.360656 1.123208 2.867988 4.276972 1.711581 3.068906 -3.314522 2.475415 14.448956 -0.662078 -0.309730 -0.706798 -0.183660 2.692636 -4.839678 1.717312 0.004186 -0.862410 -0.556144 -2.301339 14.791632 -0.447272 0.170692 -0.864946 0.285203 5.279460 -5.418103 0.262056 0.000000 -0.000000 -0.000000
-132.137592 106.664583 288.337833 65.560596 -7.997625 -0.188354 -0.812771 2.375971 -1.252927 -0.354735 1.058177 -0.552570 -0.354736 1.058177 -0.552570 -0.265088 0.793955 -0.413801 -1.140692 16.804471 1.181174 -2.529302 -4.939892 2.590083 2.045233 2.379463 10.540796 0.185032 -5.801308 74.578450 2.728966 17.977290 1.479783 -0.210963 1.828546 3.263702 -0.518723 3.451390 -7.019565 -2.205715 -6.864485 -77.358289 1.048918 2.941949 4.207070 1.726854 3.094451 -3.345477 2.502997 14.278408 -0.660629 -0.271478 -0.655122 -0.243496 2.724945 -4.848606 1.759673 0.004201 -0.851299 -0.565533 -2.226011 14.636993 -0.487710 0.226577 -0.809047 0.388948 5.264700 -5.431567 0.191641 0.000000 0.000000 -0.000000
-132.176291 106.660443 288.333040 65.460308 -7.896573 -0.175209 -0.829799 2.334338 -1.231181 -0.362526 1.039681 -0.542900 -0.362526 1.039681 -0.542900 -0.270964 0.780084 -0.406547 -1.165659 16.822521 1.139201 -2.560292 -4.906923 2.520562 2.042828 2.380619 10.479092 0.182260 -5.803454 74.609959 2.534696 17.894606 1.339460 -0.205000 1.838236 3.270546 -0.551210 3.438044 -6.979422 -2.321755 -6.946935 -77.359842 0.986203 2.997272 4.147095 1.743185 3.118531 -3.376861 2.547610 14.124939 -0.650556 -0.235262 -0.606962 -0.297760 2.735743 -4.857717 1.797060 0.004218 -0.840203 -0.575200 -2.167381 14.496400 -0.523153 0.288072 -0.751390 0.480769 5.253555 -5.447717 0.127655 0.000000 0.000000 0.000000
-132.213525 106.658929 288.333432 65.373080 -7.813539 -0.167555 -0.854304 2.301681 -1.207459 -0.373621 1.025188 -0.532299 -0.373621 1.025188 -0.532299 -0.279315 0.769217 -0.398587 -1.205976 16.842766 1.094375 -2.618668 -4.869490 2.451079 2.037886 2.383155 10.424139 0.195758 -5.814679 74.644162 2.327790 17.768219 1.177938 -0.194657 1.838324 3.264852 -0.586323 3.431545 -6.941702 -2.429743 -7.027611 -77.365501 0.937531 3.025595 4.099605 1.760468 3.140727 -3.409999 2.631395 13.996294 -0.623846 -0.206165 -0.565227 -0.344776 2.705002 -4.865696 1.828575 0.004245 -0.829579 -0.586413 -2.133483 14.375569 -0.550966 0.357992 -0.690845 0.555291 5.248139 -5.467347 0.071818 0.000000 0.000000 0.000000
-132.249455 106.658979 288.337136 65.294643 -7.743346 -0.163500 -0.883627 2.274811 -1.182499 -0.386845 1.013275 -0.521116 -0.386845 1.013275 -0.521116 -0.289262 0.760287 -0.390185 -1.257180 16.864624 1.048232 -2.696712 -4.828780 2.382916 2.032766 2.386348 10.374053 0.219392 -5.831508 74.680064 2.112558 17.615070 1.003129 -0.181995 1.832870 3.251898 -0.622944 3.428620 -6.906085 -2.530576 -7.105717 -77.375109 0.900767 3.035496 4.062108 1.778836 3.161498 -3.443520 2.732072 13.884704 -0.588880 -0.179097 -0.526938 -0.386170 2.652755 -4.873828 1.855112 0.004273 -0.818970 -0.597905 -2.116267 14.268784 -0.573629 0.433506 -0.628503 0.617891 5.246337 -5.489642 0.022408 0.000000 -0.000000 0.000000
-132.283261 106.658961 288.341846 65.221009 -7.683281 -0.161018 -0.914624 2.249894 -1.157320 -0.400806 1.002230 -0.509827 -0.400806 1.002230 -0.509827 -0.299761 0.752007 -0.381703 -1.316660 16.888267 1.004142 -2.790753 -4.784431 2.321387 2.034403 2.388813 10.328072 0.244923 -5.849218 74.716265 1.891600 17.460346 0.824304 -0.171088 1.828738 3.239973 -0.659235 3.422965 -6.873675 -2.619880 -7.176060 -77.392654 0.881260 3.034207 4.036837 1.799965 3.180828 -3.473607 2.800004 13.784019 -0.561701 -0.140822 -0.486760 -0.421329 2.617599 -4.886182 1.874394 0.004269 -0.807015 -0.606151 -2.108305 14.172961 -0.593715 0.511688 -0.565838 0.672709 5.245401 -5.514850 -0.019310 0.000000 0.000000 0.000000
-132.314436 106.658424 288.346575 65.155790 -7.632469 -0.160305 -0.948451 2.225248 -1.131419 -0.416025 0.991308 -0.498206 -0.416025 0.991308 -0.498206 -0.311203 0.743821 -0.372971 -1.386415 16.914574 0.961715 -2.904326 -4.734762 2.266428 2.047283 2.390491 10.285999 0.267865 -5.866050 74.752001 1.662181 17.309392 0.641067 -0.162398 1.826858 3.229853 -0.694892 3.412075 -6.845204 -2.694896 -7.237794 -77.422197 0.884942 3.022156 4.027189 1.826431 3.198586 -3.498930 2.796953 13.691069 -0.551521 -0.077857 -0.439307 -0.449493 2.619678 -4.906493 1.884759 0.004220 -0.793543 -0.609398 -2.107137 14.086980 -0.610391 0.591029 -0.503843 0.720165 5.239547 -5.542897 -0.051856 0.000000 0.000000 0.000000
-132.343487 106.657821 288.352309 65.095360 -7.591791 -0.161111 -0.983964 2.202553 -1.105323 -0.431987 0.981252 -0.486490 -0.431987 0.981252 -0.486490 -0.323201 0.736284 -0.364165 -1.464453 16.942640 0.921290 -3.033886 -4.681518 2.217982 2.066942 2.391514 10.248037 0.292696 -5.883778 74.788036 1.427062 17.156773 0.453842 -0.155482 1.826321 3.220713 -0.730223 3.398422 -6.819921 -2.758384 -7.291805 -77.459895 0.906081 2.999056 4.029577 1.855748 3.214967 -3.520800 2.761258 13.609053 -0.548780 -0.003688 -0.389996 -0.471440 2.638852 -4.931043 1.887867 0.004141 -0.778724 -0.609398 -2.115224 14.011973 -0.624489 0.673020 -0.441508 0.759839 5.234562 -5.573863 -0.076706 0.000000 0.000000 0.000000
-132.371108 106.656876 288.359701 65.024898 -7.561157 -0.160763 -1.014571 2.183001 -1.081595 -0.445747 0.972583 -0.475845 -0.445747 0.972583 -0.475845 -0.333545 0.729785 -0.356166 -1.542158 16.970038 0.887356 -3.165100 -4.629301 2.181410 2.086891 2.390795 10.214030 0.324617 -5.902991 74.825256 1.196650 17.011712 0.272818 -0.153167 1.831317 3.218316 -0.764309 3.383167 -6.796681 -2.814273 -7.335458 -77.497958 0.932457 2.971032 4.035749 1.882011 3.230446 -3.539340 2.758160 13.541429 -0.541353 0.054482 -0.349729 -0.488881 2.653289 -4.952729 1.886432 0.004041 -0.761717 -0.607885 -2.132509 13.948216 -0.641084 0.759238 -0.377299 0.794585 5.245056 -5.608222 -0.097031 0.000000 0.000000 0.000000
-132.397686 106.655379 288.369302 64.938385 -7.542215 -0.158556 -1.037504 2.167610 -1.061071 -0.456070 0.965750 -0.466653 -0.456070 0.965750 -0.466653 -0.341307 0.724662 -0.349261 -1.618101 16.997522 0.862431 -3.296168 -4.576647 2.160851 2.105864 2.388468 10.184606 0.370197 -5.925802 74.864648 0.966272 16.875310 0.096004 -0.158360 1.845902 3.227795 -0.797200 3.366893 -6.775246 -2.866053 -7.368194 -77.534066 0.962402 2.936770 4.044255 1.902630 3.244050 -3.553559 2.819320 13.491391 -0.522840 0.078441 -0.323009 -0.501712 2.656391 -4.969144 1.879706 0.003912 -0.741694 -0.604452 -2.163746 13.896032 -0.662382 0.854412 -0.307086 0.823791 5.278070 -5.648755 -0.111303 0.000000 -0.000000 0.000000
-132.422834 106.653541 288.380562 64.841836 -7.533312 -0.155168 -1.055539 2.155350 -1.042950 -0.464198 0.960302 -0.458545 -0.464198 0.960302 -0.458545 -0.347420 0.720575 -0.343172 -1.693690 17.024437 0.843995 -3.428836 -4.524812 2.152145 2.125136 2.384417 10.159148 0.422847 -5.950106 74.905248 0.740339 16.746613 -0.074740 -0.168224 1.866119 3.243889 -0.828849 3.349012 -6.755847 -2.910287 -7.390505 -77.570691 0.997605 2.897585 4.056499 1.920253 3.256755 -3.564385 2.913029 13.455723 -0.499824 0.086417 -0.305347 -0.510065 2.654763 -4.982694 1.868438 0.003764 -0.719483 -0.599503 -2.204167 13.855065 -0.686168 0.953805 -0.234966 0.848014 5.326568 -5.692655 -0.121089 -0.000000 0.000000 0.000000
-132.446091 106.651722 288.392486 64.738480 -7.529399 -0.150025 -1.070397 2.144340 -1.027335 -0.470898 0.955406 -0.451564 -0.470898 0.955406 -0.451564 -0.352459 0.716903 -0.337929 -1.764532 17.046289 0.829033 -3.554063 -4.482386 2.148341 2.142044 2.377150 10.135636 0.468033 -5.970149 74.945002 0.542625 16.632071 -0.223686 -0.176966 1.884106 3.256806 -0.858188 3.328938 -6.738046 -2.940538 -7.401269 -77.607235 1.030816 2.863508 4.068611 1.936810 3.271941 -3.574818 3.009444 13.428297 -0.479768 0.105869 -0.294143 -0.515979 2.646376 -4.993501 1.857593 0.003624 -0.696727 -0.595986 -2.239427 13.824561 -0.710898 1.044811 -0.171742 0.871834 5.384044 -5.732003 -0.134196 0.000000 -0.000000 -0.000000
-132.465790 106.649979 288.405071 64.625565 -7.530401 -0.141889 -1.080954 2.133096 -1.015140 -0.475671 0.950403 -0.446123 -0.475671 0.950403 -0.446122 -0.356051 0.713150 -0.333845 -1.829823 17.062418 0.817545 -3.670376 -4.450605 2.149195 2.154246 2.366284 10.114150 0.499679 -5.983388 74.983824 0.377606 16.534526 -0.347439 -0.183236 1.897971 3.262442 -0.885104 3.305775 -6.722163 -2.952966 -7.395595 -77.642403 1.057131 2.835780 4.079071 1.953757 3.294050 -3.586774 3.101711 13.410071 -0.466835 0.150693 -0.290478 -0.518401 2.626726 -5.001248 1.849551 0.003506 -0.673688 -0.596274 -2.263308 13.808506 -0.737952 1.121121 -0.124451 0.898084 5.452950 -5.762659 -0.155786 -0.000000 -0.000000 0.000000
-132.483597 106.648254 288.418321 64.505838 -7.536380 -0.131971 -1.088333 2.123084 -1.005455 -0.479017 0.945947 -0.441809 -0.479017 0.945947 -0.441809 -0.358571 0.709807 -0.330608 -1.890331 17.073547 0.809589 -3.779202 -4.428109 2.155073 2.164092 2.352201 10.094632 0.523855 -5.992361 75.021779 0.240396 16.451579 -0.449721 -0.188355 1.909555 3.264961 -0.909711 3.280415 -6.707863 -2.951452 -7.378281 -77.677614 1.081438 2.813150 4.089438 1.969641 3.318638 -3.598322 3.196704 13.400093 -0.456832 0.206996 -0.293265 -0.518375 2.600315 -5.006255 1.841924 0.003393 -0.650104 -0.597993 -2.282052 13.802898 -0.766046 1.189039 -0.086039 0.923889 5.530824 -5.788747 -0.180693 0.000000 0.000000 0.000000
-132.504047 106.646734 288.431247 64.390786 -7.542507 -0.123400 -1.097623 2.116855 -0.995649 -0.483204 0.943175 -0.437425 -0.483204 0.943175 -0.437425 -0.361720 0.707728 -0.327316 -1.944002 17.077221 0.802299 -3.875845 -4.419652 2.160068 2.175954 2.334544 10.074852 0.544262 -5.998938 75.057033 0.140613 16.381976 -0.525528 -0.190524 1.916546 3.267061 -0.931278 3.254966 -6.693727 -2.941129 -7.362751 -77.716280 1.111168 2.801905 4.100450 1.982029 3.335758 -3.606700 3.285164 13.389393 -0.444676 0.260559 -0.296638 -0.521064 2.578621 -5.009600 1.832524 0.003266 -0.626831 -0.596970 -2.300004 13.795034 -0.789604 1.254883 -0.046190 0.945283 5.603794 -5.814754 -0.201208 0.000000 0.000000 0.000000
-132.529472 106.645336 288.443471 64.283551 -7.548407 -0.117873 -1.110968 2.117440 -0.984313 -0.489184 0.943437 -0.432325 -0.489184 0.943437 -0.432325 -0.366213 0.707925 -0.323482 -1.990401 17.069002 0.794957 -3.959401 -4.433514 2.162884 2.191688 2.311063 10.053219 0.561098 -6.003292 75.088694 0.089036 16.322636 -0.569140 -0.188407 1.916660 3.269258 -0.946817 3.227991 -6.679307 -2.916241 -7.354572 -77.760439 1.145582 2.806774 4.110033 1.986514 3.336004 -3.606638 3.367154 13.375690 -0.426526 0.303999 -0.298664 -0.529442 2.565743 -5.011354 1.820058 0.003114 -0.603947 -0.590742 -2.321250 13.780557 -0.806045 1.322940 0.000957 0.959566 5.667657 -5.843881 -0.213123 0.000000 0.000000 0.000000
